<svg xmlns="http://www.w3.org/2000/svg" version="1.1" xmlns:xlink="http://www.w3.org/1999/xlink" xmlns:svgjs="http://svgjs.com/svgjs" width="1440" height="560" preserveAspectRatio="none" viewBox="0 0 1440 560"><g mask="url(&quot;#SvgjsMask1012&quot;)" fill="none"><rect width="1440" height="560" x="0" y="0" fill="#0e2a47"></rect><path d="M720 251L719 77" stroke-width="10" stroke="url(#SvgjsLinearGradient1013)" stroke-linecap="round" class="Down"></path><path d="M109 449L108 57" stroke-width="10" stroke="url(#SvgjsLinearGradient1013)" stroke-linecap="round" class="Down"></path><path d="M75 93L74 -267" stroke-width="6" stroke="url(#SvgjsLinearGradient1013)" stroke-linecap="round" class="Down"></path><path d="M837 369L836 615" stroke-width="10" stroke="url(#SvgjsLinearGradient1013)" stroke-linecap="round" class="Down"></path><path d="M41 428L40 63" stroke-width="6" stroke="url(#SvgjsLinearGradient1013)" stroke-linecap="round" class="Down"></path><path d="M680 228L679 -77" stroke-width="8" stroke="url(#SvgjsLinearGradient1014)" stroke-linecap="round" class="Up"></path><path d="M524 256L523 412" stroke-width="6" stroke="url(#SvgjsLinearGradient1014)" stroke-linecap="round" class="Up"></path><path d="M1160 293L1159 594" stroke-width="6" stroke="url(#SvgjsLinearGradient1013)" stroke-linecap="round" class="Down"></path><path d="M91 179L90 -72" stroke-width="8" stroke="url(#SvgjsLinearGradient1014)" stroke-linecap="round" class="Up"></path><path d="M592 164L591 -213" stroke-width="8" stroke="url(#SvgjsLinearGradient1014)" stroke-linecap="round" class="Up"></path><path d="M1031 450L1030 663" stroke-width="10" stroke="url(#SvgjsLinearGradient1014)" stroke-linecap="round" class="Up"></path><path d="M790 462L789 193" stroke-width="6" stroke="url(#SvgjsLinearGradient1014)" stroke-linecap="round" class="Up"></path><path d="M364 361L363 86" stroke-width="8" stroke="url(#SvgjsLinearGradient1014)" stroke-linecap="round" class="Up"></path><path d="M738 450L737 670" stroke-width="10" stroke="url(#SvgjsLinearGradient1014)" stroke-linecap="round" class="Up"></path><path d="M1432 301L1431 475" stroke-width="8" stroke="url(#SvgjsLinearGradient1014)" stroke-linecap="round" class="Up"></path><path d="M217 178L216 -61" stroke-width="10" stroke="url(#SvgjsLinearGradient1014)" stroke-linecap="round" class="Up"></path><path d="M1433 339L1432 528" stroke-width="8" stroke="url(#SvgjsLinearGradient1014)" stroke-linecap="round" class="Up"></path><path d="M527 41L526 276" stroke-width="10" stroke="url(#SvgjsLinearGradient1014)" stroke-linecap="round" class="Up"></path><path d="M1103 410L1102 158" stroke-width="6" stroke="url(#SvgjsLinearGradient1014)" stroke-linecap="round" class="Up"></path><path d="M1402 39L1401 -347" stroke-width="8" stroke="url(#SvgjsLinearGradient1014)" stroke-linecap="round" class="Up"></path><path d="M776 224L775 596" stroke-width="6" stroke="url(#SvgjsLinearGradient1014)" stroke-linecap="round" class="Up"></path><path d="M303 87L302 -188" stroke-width="6" stroke="url(#SvgjsLinearGradient1014)" stroke-linecap="round" class="Up"></path><path d="M171 257L170 -71" stroke-width="6" stroke="url(#SvgjsLinearGradient1013)" stroke-linecap="round" class="Down"></path><path d="M165 235L164 -57" stroke-width="6" stroke="url(#SvgjsLinearGradient1014)" stroke-linecap="round" class="Up"></path><path d="M232 303L231 53" stroke-width="10" stroke="url(#SvgjsLinearGradient1013)" stroke-linecap="round" class="Down"></path><path d="M1251 282L1250 481" stroke-width="10" stroke="url(#SvgjsLinearGradient1013)" stroke-linecap="round" class="Down"></path><path d="M1009 137L1008 -178" stroke-width="6" stroke="url(#SvgjsLinearGradient1014)" stroke-linecap="round" class="Up"></path><path d="M802 247L801 418" stroke-width="10" stroke="url(#SvgjsLinearGradient1014)" stroke-linecap="round" class="Up"></path><path d="M84 363L83 583" stroke-width="10" stroke="url(#SvgjsLinearGradient1014)" stroke-linecap="round" class="Up"></path><path d="M456 234L455 394" stroke-width="8" stroke="url(#SvgjsLinearGradient1013)" stroke-linecap="round" class="Down"></path><path d="M156 308L155 7" stroke-width="6" stroke="url(#SvgjsLinearGradient1013)" stroke-linecap="round" class="Down"></path><path d="M160 163L159 530" stroke-width="6" stroke="url(#SvgjsLinearGradient1013)" stroke-linecap="round" class="Down"></path><path d="M99 0L98 -418" stroke-width="10" stroke="url(#SvgjsLinearGradient1014)" stroke-linecap="round" class="Up"></path><path d="M995 52L994 -362" stroke-width="8" stroke="url(#SvgjsLinearGradient1014)" stroke-linecap="round" class="Up"></path><path d="M1023 437L1022 799" stroke-width="8" stroke="url(#SvgjsLinearGradient1013)" stroke-linecap="round" class="Down"></path><path d="M513 401L512 627" stroke-width="6" stroke="url(#SvgjsLinearGradient1013)" stroke-linecap="round" class="Down"></path></g><defs><mask id="SvgjsMask1012"><rect width="1440" height="560" fill="#ffffff"></rect></mask><linearGradient x1="0%" y1="0%" x2="0%" y2="100%" id="SvgjsLinearGradient1013"><stop stop-color="rgba(28, 83, 142, 0)" offset="0"></stop><stop stop-color="#1c538e" offset="1"></stop></linearGradient><linearGradient x1="0%" y1="100%" x2="0%" y2="0%" id="SvgjsLinearGradient1014"><stop stop-color="rgba(28, 83, 142, 0)" offset="0"></stop><stop stop-color="#1c538e" offset="1"></stop></linearGradient></defs></svg>