<svg xmlns="http://www.w3.org/2000/svg" version="1.1" xmlns:xlink="http://www.w3.org/1999/xlink" xmlns:svgjs="http://svgjs.com/svgjs" width="1440" height="560" preserveAspectRatio="none" viewBox="0 0 1440 560"><g mask="url(&quot;#SvgjsMask1000&quot;)" fill="none"><rect width="1440" height="560" x="0" y="0" fill="#0e2a47"></rect><path d="M-93.56 368.42L-93.56 368.42" stroke="#132e65" stroke-width="1.5"></path><path d="M-93.56 368.42L-58.7 502.62" stroke="#132e65" stroke-width="1.5"></path><path d="M-93.56 368.42L50.58 384.35" stroke="#132e65" stroke-width="1.5"></path><path d="M-93.56 368.42L52.92 519.78" stroke="#132e65" stroke-width="1.5"></path><path d="M-93.56 368.42L-107.37 653.1" stroke="#132e65" stroke-width="1.5"></path><path d="M-93.56 368.42L224.94 528.11" stroke="#132e65" stroke-width="1.5"></path><path d="M-58.7 502.62L-58.7 502.62" stroke="#132e65" stroke-width="1.5"></path><path d="M-58.7 502.62L52.92 519.78" stroke="#132e65" stroke-width="1.5"></path><path d="M-107.37 653.1L-107.37 653.1" stroke="#132e65" stroke-width="1.5"></path><path d="M-107.37 653.1L-58.7 502.62" stroke="#132e65" stroke-width="1.5"></path><path d="M-107.37 653.1L89.37 682.23" stroke="#132e65" stroke-width="1.5"></path><path d="M-107.37 653.1L52.92 519.78" stroke="#132e65" stroke-width="1.5"></path><path d="M50.58 384.35L50.58 384.35" stroke="#132e65" stroke-width="1.5"></path><path d="M50.58 384.35L52.92 519.78" stroke="#132e65" stroke-width="1.5"></path><path d="M50.58 384.35L-58.7 502.62" stroke="#132e65" stroke-width="1.5"></path><path d="M50.58 384.35L261.85 404.25" stroke="#132e65" stroke-width="1.5"></path><path d="M50.58 384.35L224.94 528.11" stroke="#132e65" stroke-width="1.5"></path><path d="M50.58 384.35L89.37 682.23" stroke="#132e65" stroke-width="1.5"></path><path d="M52.92 519.78L52.92 519.78" stroke="#132e65" stroke-width="1.5"></path><path d="M89.37 682.23L89.37 682.23" stroke="#132e65" stroke-width="1.5"></path><path d="M89.37 682.23L52.92 519.78" stroke="#132e65" stroke-width="1.5"></path><path d="M261.85 404.25L261.85 404.25" stroke="#132e65" stroke-width="1.5"></path><path d="M261.85 404.25L354.34 492.97" stroke="#132e65" stroke-width="1.5"></path><path d="M261.85 404.25L224.94 528.11" stroke="#132e65" stroke-width="1.5"></path><path d="M261.85 404.25L52.92 519.78" stroke="#132e65" stroke-width="1.5"></path><path d="M224.94 528.11L224.94 528.11" stroke="#132e65" stroke-width="1.5"></path><path d="M224.94 528.11L354.34 492.97" stroke="#132e65" stroke-width="1.5"></path><path d="M224.94 528.11L52.92 519.78" stroke="#132e65" stroke-width="1.5"></path><path d="M354.34 492.97L354.34 492.97" stroke="#132e65" stroke-width="1.5"></path><path d="M371.43 646.01L371.43 646.01" stroke="#132e65" stroke-width="1.5"></path><path d="M371.43 646.01L354.34 492.97" stroke="#132e65" stroke-width="1.5"></path><path d="M371.43 646.01L556.12 679.02" stroke="#132e65" stroke-width="1.5"></path><path d="M371.43 646.01L224.94 528.11" stroke="#132e65" stroke-width="1.5"></path><path d="M557.19 351.18L557.19 351.18" stroke="#132e65" stroke-width="1.5"></path><path d="M557.19 351.18L532.53 488.1" stroke="#132e65" stroke-width="1.5"></path><path d="M532.53 488.1L532.53 488.1" stroke="#132e65" stroke-width="1.5"></path><path d="M532.53 488.1L647.56 525.54" stroke="#132e65" stroke-width="1.5"></path><path d="M532.53 488.1L354.34 492.97" stroke="#132e65" stroke-width="1.5"></path><path d="M556.12 679.02L556.12 679.02" stroke="#132e65" stroke-width="1.5"></path><path d="M556.12 679.02L673.04 639.1" stroke="#132e65" stroke-width="1.5"></path><path d="M706.02 262.43L706.02 262.43" stroke="#132e65" stroke-width="1.5"></path><path d="M706.02 262.43L709.49 363.36" stroke="#132e65" stroke-width="1.5"></path><path d="M706.02 262.43L804.57 224.32" stroke="#132e65" stroke-width="1.5"></path><path d="M706.02 262.43L844.15 357.18" stroke="#132e65" stroke-width="1.5"></path><path d="M706.02 262.43L557.19 351.18" stroke="#132e65" stroke-width="1.5"></path><path d="M709.49 363.36L709.49 363.36" stroke="#132e65" stroke-width="1.5"></path><path d="M709.49 363.36L844.15 357.18" stroke="#132e65" stroke-width="1.5"></path><path d="M709.49 363.36L557.19 351.18" stroke="#132e65" stroke-width="1.5"></path><path d="M709.49 363.36L804.57 224.32" stroke="#132e65" stroke-width="1.5"></path><path d="M709.49 363.36L647.56 525.54" stroke="#132e65" stroke-width="1.5"></path><path d="M709.49 363.36L532.53 488.1" stroke="#132e65" stroke-width="1.5"></path><path d="M647.56 525.54L647.56 525.54" stroke="#132e65" stroke-width="1.5"></path><path d="M647.56 525.54L673.04 639.1" stroke="#132e65" stroke-width="1.5"></path><path d="M673.04 639.1L673.04 639.1" stroke="#132e65" stroke-width="1.5"></path><path d="M673.04 639.1L821.29 663.17" stroke="#132e65" stroke-width="1.5"></path><path d="M804.57 224.32L804.57 224.32" stroke="#132e65" stroke-width="1.5"></path><path d="M804.57 224.32L844.15 357.18" stroke="#132e65" stroke-width="1.5"></path><path d="M844.15 357.18L844.15 357.18" stroke="#132e65" stroke-width="1.5"></path><path d="M844.15 357.18L966.87 362.59" stroke="#132e65" stroke-width="1.5"></path><path d="M844.15 357.18L989.16 257.93" stroke="#132e65" stroke-width="1.5"></path><path d="M859.62 556.69L859.62 556.69" stroke="#132e65" stroke-width="1.5"></path><path d="M859.62 556.69L959.69 534.95" stroke="#132e65" stroke-width="1.5"></path><path d="M859.62 556.69L821.29 663.17" stroke="#132e65" stroke-width="1.5"></path><path d="M821.29 663.17L821.29 663.17" stroke="#132e65" stroke-width="1.5"></path><path d="M821.29 663.17L965.38 705.45" stroke="#132e65" stroke-width="1.5"></path><path d="M821.29 663.17L959.69 534.95" stroke="#132e65" stroke-width="1.5"></path><path d="M821.29 663.17L647.56 525.54" stroke="#132e65" stroke-width="1.5"></path><path d="M821.29 663.17L556.12 679.02" stroke="#132e65" stroke-width="1.5"></path><path d="M997.87 -97.53L997.87 -97.53" stroke="#132e65" stroke-width="1.5"></path><path d="M997.87 -97.53L1094.39 -68.76" stroke="#132e65" stroke-width="1.5"></path><path d="M997.87 -97.53L980.97 95.27" stroke="#132e65" stroke-width="1.5"></path><path d="M997.87 -97.53L1161.59 104.23" stroke="#132e65" stroke-width="1.5"></path><path d="M980.97 95.27L980.97 95.27" stroke="#132e65" stroke-width="1.5"></path><path d="M980.97 95.27L1091.65 205.86" stroke="#132e65" stroke-width="1.5"></path><path d="M980.97 95.27L989.16 257.93" stroke="#132e65" stroke-width="1.5"></path><path d="M980.97 95.27L1161.59 104.23" stroke="#132e65" stroke-width="1.5"></path><path d="M989.16 257.93L989.16 257.93" stroke="#132e65" stroke-width="1.5"></path><path d="M989.16 257.93L966.87 362.59" stroke="#132e65" stroke-width="1.5"></path><path d="M989.16 257.93L1091.65 205.86" stroke="#132e65" stroke-width="1.5"></path><path d="M989.16 257.93L1087.71 369.16" stroke="#132e65" stroke-width="1.5"></path><path d="M966.87 362.59L966.87 362.59" stroke="#132e65" stroke-width="1.5"></path><path d="M966.87 362.59L1087.71 369.16" stroke="#132e65" stroke-width="1.5"></path><path d="M959.69 534.95L959.69 534.95" stroke="#132e65" stroke-width="1.5"></path><path d="M959.69 534.95L965.38 705.45" stroke="#132e65" stroke-width="1.5"></path><path d="M959.69 534.95L966.87 362.59" stroke="#132e65" stroke-width="1.5"></path><path d="M959.69 534.95L1087.71 369.16" stroke="#132e65" stroke-width="1.5"></path><path d="M965.38 705.45L965.38 705.45" stroke="#132e65" stroke-width="1.5"></path><path d="M965.38 705.45L859.62 556.69" stroke="#132e65" stroke-width="1.5"></path><path d="M965.38 705.45L673.04 639.1" stroke="#132e65" stroke-width="1.5"></path><path d="M965.38 705.45L966.87 362.59" stroke="#132e65" stroke-width="1.5"></path><path d="M965.38 705.45L1087.71 369.16" stroke="#132e65" stroke-width="1.5"></path><path d="M1094.39 -68.76L1094.39 -68.76" stroke="#132e65" stroke-width="1.5"></path><path d="M1094.39 -68.76L1242.61 37.75" stroke="#132e65" stroke-width="1.5"></path><path d="M1161.59 104.23L1161.59 104.23" stroke="#132e65" stroke-width="1.5"></path><path d="M1161.59 104.23L1242.61 37.75" stroke="#132e65" stroke-width="1.5"></path><path d="M1161.59 104.23L1091.65 205.86" stroke="#132e65" stroke-width="1.5"></path><path d="M1161.59 104.23L1260.15 207.43" stroke="#132e65" stroke-width="1.5"></path><path d="M1161.59 104.23L1094.39 -68.76" stroke="#132e65" stroke-width="1.5"></path><path d="M1091.65 205.86L1091.65 205.86" stroke="#132e65" stroke-width="1.5"></path><path d="M1087.71 369.16L1087.71 369.16" stroke="#132e65" stroke-width="1.5"></path><path d="M1087.71 369.16L1091.65 205.86" stroke="#132e65" stroke-width="1.5"></path><path d="M1289.21 -84.96L1289.21 -84.96" stroke="#132e65" stroke-width="1.5"></path><path d="M1289.21 -84.96L1242.61 37.75" stroke="#132e65" stroke-width="1.5"></path><path d="M1289.21 -84.96L1425.22 -72.26" stroke="#132e65" stroke-width="1.5"></path><path d="M1242.61 37.75L1242.61 37.75" stroke="#132e65" stroke-width="1.5"></path><path d="M1260.15 207.43L1260.15 207.43" stroke="#132e65" stroke-width="1.5"></path><path d="M1260.15 207.43L1408.43 206.08" stroke="#132e65" stroke-width="1.5"></path><path d="M1260.15 207.43L1091.65 205.86" stroke="#132e65" stroke-width="1.5"></path><path d="M1260.15 207.43L1242.61 37.75" stroke="#132e65" stroke-width="1.5"></path><path d="M1260.15 207.43L1280.37 404.38" stroke="#132e65" stroke-width="1.5"></path><path d="M1280.37 404.38L1280.37 404.38" stroke="#132e65" stroke-width="1.5"></path><path d="M1280.37 404.38L1274.57 509.13" stroke="#132e65" stroke-width="1.5"></path><path d="M1280.37 404.38L1423.8 356.39" stroke="#132e65" stroke-width="1.5"></path><path d="M1280.37 404.38L1087.71 369.16" stroke="#132e65" stroke-width="1.5"></path><path d="M1274.57 509.13L1274.57 509.13" stroke="#132e65" stroke-width="1.5"></path><path d="M1274.57 509.13L1445.63 516.49" stroke="#132e65" stroke-width="1.5"></path><path d="M1274.57 509.13L1423.8 356.39" stroke="#132e65" stroke-width="1.5"></path><path d="M1274.57 509.13L1087.71 369.16" stroke="#132e65" stroke-width="1.5"></path><path d="M1274.57 509.13L1260.15 207.43" stroke="#132e65" stroke-width="1.5"></path><path d="M1425.22 -72.26L1425.22 -72.26" stroke="#132e65" stroke-width="1.5"></path><path d="M1425.22 -72.26L1544.2 -105.85" stroke="#132e65" stroke-width="1.5"></path><path d="M1425.22 -72.26L1540.02 42.9" stroke="#132e65" stroke-width="1.5"></path><path d="M1408.43 206.08L1408.43 206.08" stroke="#132e65" stroke-width="1.5"></path><path d="M1408.43 206.08L1423.8 356.39" stroke="#132e65" stroke-width="1.5"></path><path d="M1408.43 206.08L1562.18 232.78" stroke="#132e65" stroke-width="1.5"></path><path d="M1408.43 206.08L1540.02 42.9" stroke="#132e65" stroke-width="1.5"></path><path d="M1408.43 206.08L1590.47 347.51" stroke="#132e65" stroke-width="1.5"></path><path d="M1408.43 206.08L1280.37 404.38" stroke="#132e65" stroke-width="1.5"></path><path d="M1423.8 356.39L1423.8 356.39" stroke="#132e65" stroke-width="1.5"></path><path d="M1423.8 356.39L1445.63 516.49" stroke="#132e65" stroke-width="1.5"></path><path d="M1423.8 356.39L1590.47 347.51" stroke="#132e65" stroke-width="1.5"></path><path d="M1423.8 356.39L1562.18 232.78" stroke="#132e65" stroke-width="1.5"></path><path d="M1445.63 516.49L1445.63 516.49" stroke="#132e65" stroke-width="1.5"></path><path d="M1445.63 516.49L1594.88 510.87" stroke="#132e65" stroke-width="1.5"></path><path d="M1544.2 -105.85L1544.2 -105.85" stroke="#132e65" stroke-width="1.5"></path><path d="M1544.2 -105.85L1540.02 42.9" stroke="#132e65" stroke-width="1.5"></path><path d="M1544.2 -105.85L1289.21 -84.96" stroke="#132e65" stroke-width="1.5"></path><path d="M1540.02 42.9L1540.02 42.9" stroke="#132e65" stroke-width="1.5"></path><path d="M1562.18 232.78L1562.18 232.78" stroke="#132e65" stroke-width="1.5"></path><path d="M1562.18 232.78L1590.47 347.51" stroke="#132e65" stroke-width="1.5"></path><path d="M1590.47 347.51L1590.47 347.51" stroke="#132e65" stroke-width="1.5"></path><path d="M1590.47 347.51L1594.88 510.87" stroke="#132e65" stroke-width="1.5"></path><path d="M1590.47 347.51L1445.63 516.49" stroke="#132e65" stroke-width="1.5"></path><path d="M1594.88 510.87L1594.88 510.87" stroke="#132e65" stroke-width="1.5"></path><path d="M1594.88 510.87L1602.48 695.49" stroke="#132e65" stroke-width="1.5"></path><path d="M1594.88 510.87L1423.8 356.39" stroke="#132e65" stroke-width="1.5"></path><path d="M1602.48 695.49L1602.48 695.49" stroke="#132e65" stroke-width="1.5"></path><path d="M1602.48 695.49L1445.63 516.49" stroke="#132e65" stroke-width="1.5"></path><path d="M1602.48 695.49L1590.47 347.51" stroke="#132e65" stroke-width="1.5"></path><path d="M1602.48 695.49L1274.57 509.13" stroke="#132e65" stroke-width="1.5"></path><circle r="5" cx="-93.56" cy="368.42" fill="#132e65"></circle><circle r="5" cx="-58.7" cy="502.62" fill="#132e65"></circle><circle r="5" cx="-107.37" cy="653.1" fill="#132e65"></circle><circle r="5" cx="50.58" cy="384.35" fill="#132e65"></circle><circle r="5" cx="52.92" cy="519.78" fill="#132e65"></circle><circle r="5" cx="89.37" cy="682.23" fill="#132e65"></circle><circle r="5" cx="261.85" cy="404.25" fill="#132e65"></circle><circle r="5" cx="224.94" cy="528.11" fill="#132e65"></circle><circle r="5" cx="354.34" cy="492.97" fill="#132e65"></circle><circle r="5" cx="371.43" cy="646.01" fill="#132e65"></circle><circle r="5" cx="557.19" cy="351.18" fill="#132e65"></circle><circle r="5" cx="532.53" cy="488.1" fill="#132e65"></circle><circle r="5" cx="556.12" cy="679.02" fill="#132e65"></circle><circle r="5" cx="706.02" cy="262.43" fill="#132e65"></circle><circle r="5" cx="709.49" cy="363.36" fill="#132e65"></circle><circle r="5" cx="647.56" cy="525.54" fill="#132e65"></circle><circle r="5" cx="673.04" cy="639.1" fill="#132e65"></circle><circle r="5" cx="804.57" cy="224.32" fill="#132e65"></circle><circle r="5" cx="844.15" cy="357.18" fill="#132e65"></circle><circle r="5" cx="859.62" cy="556.69" fill="#132e65"></circle><circle r="5" cx="821.29" cy="663.17" fill="#132e65"></circle><circle r="5" cx="997.87" cy="-97.53" fill="#132e65"></circle><circle r="5" cx="980.97" cy="95.27" fill="#132e65"></circle><circle r="5" cx="989.16" cy="257.93" fill="#132e65"></circle><circle r="5" cx="966.87" cy="362.59" fill="#132e65"></circle><circle r="5" cx="959.69" cy="534.95" fill="#132e65"></circle><circle r="5" cx="965.38" cy="705.45" fill="#132e65"></circle><circle r="5" cx="1094.39" cy="-68.76" fill="#132e65"></circle><circle r="5" cx="1161.59" cy="104.23" fill="#132e65"></circle><circle r="5" cx="1091.65" cy="205.86" fill="#132e65"></circle><circle r="5" cx="1087.71" cy="369.16" fill="#132e65"></circle><circle r="5" cx="1289.21" cy="-84.96" fill="#132e65"></circle><circle r="5" cx="1242.61" cy="37.75" fill="#132e65"></circle><circle r="5" cx="1260.15" cy="207.43" fill="#132e65"></circle><circle r="5" cx="1280.37" cy="404.38" fill="#132e65"></circle><circle r="5" cx="1274.57" cy="509.13" fill="#132e65"></circle><circle r="5" cx="1425.22" cy="-72.26" fill="#132e65"></circle><circle r="5" cx="1408.43" cy="206.08" fill="#132e65"></circle><circle r="5" cx="1423.8" cy="356.39" fill="#132e65"></circle><circle r="5" cx="1445.63" cy="516.49" fill="#132e65"></circle><circle r="5" cx="1544.2" cy="-105.85" fill="#132e65"></circle><circle r="5" cx="1540.02" cy="42.9" fill="#132e65"></circle><circle r="5" cx="1562.18" cy="232.78" fill="#132e65"></circle><circle r="5" cx="1590.47" cy="347.51" fill="#132e65"></circle><circle r="5" cx="1594.88" cy="510.87" fill="#132e65"></circle><circle r="5" cx="1602.48" cy="695.49" fill="#132e65"></circle><path d="M-108.58 666.34L-108.58 666.34" stroke="hsl(228.5, 77.2%, 51.5%)" stroke-width="1.5"></path><path d="M-108.58 666.34L-56.15 505.64" stroke="hsl(228.5, 77.2%, 51.5%)" stroke-width="1.5"></path><path d="M-108.58 666.34L102.09 510.18" stroke="hsl(228.5, 77.2%, 51.5%)" stroke-width="1.5"></path><path d="M-108.58 666.34L198.57 684.27" stroke="hsl(228.5, 77.2%, 51.5%)" stroke-width="1.5"></path><path d="M102.09 510.18L102.09 510.18" stroke="hsl(228.5, 77.2%, 51.5%)" stroke-width="1.5"></path><path d="M102.09 510.18L251.57 543.5" stroke="hsl(228.5, 77.2%, 51.5%)" stroke-width="1.5"></path><path d="M102.09 510.18L-56.15 505.64" stroke="hsl(228.5, 77.2%, 51.5%)" stroke-width="1.5"></path><path d="M251.57 543.5L251.57 543.5" stroke="hsl(228.5, 77.2%, 51.5%)" stroke-width="1.5"></path><path d="M251.57 543.5L341.51 537.38" stroke="hsl(228.5, 77.2%, 51.5%)" stroke-width="1.5"></path><path d="M251.57 543.5L198.57 684.27" stroke="hsl(228.5, 77.2%, 51.5%)" stroke-width="1.5"></path><path d="M251.57 543.5L369.35 687.05" stroke="hsl(228.5, 77.2%, 51.5%)" stroke-width="1.5"></path><path d="M518.29 681.93L518.29 681.93" stroke="hsl(228.5, 77.2%, 51.5%)" stroke-width="1.5"></path><path d="M518.29 681.93L369.35 687.05" stroke="hsl(228.5, 77.2%, 51.5%)" stroke-width="1.5"></path><path d="M518.29 681.93L668.58 687.89" stroke="hsl(228.5, 77.2%, 51.5%)" stroke-width="1.5"></path><path d="M518.29 681.93L650.34 529" stroke="hsl(228.5, 77.2%, 51.5%)" stroke-width="1.5"></path><path d="M518.29 681.93L341.51 537.38" stroke="hsl(228.5, 77.2%, 51.5%)" stroke-width="1.5"></path><path d="M518.29 681.93L790.67 700.94" stroke="hsl(228.5, 77.2%, 51.5%)" stroke-width="1.5"></path><path d="M668.58 687.89L668.58 687.89" stroke="hsl(228.5, 77.2%, 51.5%)" stroke-width="1.5"></path><path d="M668.58 687.89L790.67 700.94" stroke="hsl(228.5, 77.2%, 51.5%)" stroke-width="1.5"></path><path d="M668.58 687.89L650.34 529" stroke="hsl(228.5, 77.2%, 51.5%)" stroke-width="1.5"></path><path d="M668.58 687.89L796.81 527.62" stroke="hsl(228.5, 77.2%, 51.5%)" stroke-width="1.5"></path><path d="M668.58 687.89L698.38 410.38" stroke="hsl(228.5, 77.2%, 51.5%)" stroke-width="1.5"></path><path d="M796.81 527.62L796.81 527.62" stroke="hsl(228.5, 77.2%, 51.5%)" stroke-width="1.5"></path><path d="M796.81 527.62L650.34 529" stroke="hsl(228.5, 77.2%, 51.5%)" stroke-width="1.5"></path><path d="M796.81 527.62L698.38 410.38" stroke="hsl(228.5, 77.2%, 51.5%)" stroke-width="1.5"></path><path d="M796.81 527.62L790.67 700.94" stroke="hsl(228.5, 77.2%, 51.5%)" stroke-width="1.5"></path><path d="M796.81 527.62L836.08 353.43" stroke="hsl(228.5, 77.2%, 51.5%)" stroke-width="1.5"></path><path d="M796.81 527.62L994.48 555.29" stroke="hsl(228.5, 77.2%, 51.5%)" stroke-width="1.5"></path><path d="M1094.28 542.11L1094.28 542.11" stroke="hsl(228.5, 77.2%, 51.5%)" stroke-width="1.5"></path><path d="M1094.28 542.11L994.48 555.29" stroke="hsl(228.5, 77.2%, 51.5%)" stroke-width="1.5"></path><path d="M1094.28 542.11L1243.13 516.26" stroke="hsl(228.5, 77.2%, 51.5%)" stroke-width="1.5"></path><path d="M1265.12 -51.6L1265.12 -51.6" stroke="hsl(228.5, 77.2%, 51.5%)" stroke-width="1.5"></path><path d="M1265.12 -51.6L1300.62 50.61" stroke="hsl(228.5, 77.2%, 51.5%)" stroke-width="1.5"></path><path d="M1265.12 -51.6L1401.69 -86.04" stroke="hsl(228.5, 77.2%, 51.5%)" stroke-width="1.5"></path><path d="M1300.62 50.61L1300.62 50.61" stroke="hsl(228.5, 77.2%, 51.5%)" stroke-width="1.5"></path><path d="M1300.62 50.61L1394.33 97.33" stroke="hsl(228.5, 77.2%, 51.5%)" stroke-width="1.5"></path><path d="M1300.62 50.61L1270.28 188.69" stroke="hsl(228.5, 77.2%, 51.5%)" stroke-width="1.5"></path><path d="M1300.62 50.61L1401.69 -86.04" stroke="hsl(228.5, 77.2%, 51.5%)" stroke-width="1.5"></path><path d="M1300.62 50.61L1433.93 233.21" stroke="hsl(228.5, 77.2%, 51.5%)" stroke-width="1.5"></path><path d="M1300.62 50.61L1107.42 252.64" stroke="hsl(228.5, 77.2%, 51.5%)" stroke-width="1.5"></path><path d="M1243.13 516.26L1243.13 516.26" stroke="hsl(228.5, 77.2%, 51.5%)" stroke-width="1.5"></path><path d="M1243.13 516.26L1252.35 674.79" stroke="hsl(228.5, 77.2%, 51.5%)" stroke-width="1.5"></path><path d="M1243.13 516.26L1403.34 489.93" stroke="hsl(228.5, 77.2%, 51.5%)" stroke-width="1.5"></path><path d="M1243.13 516.26L1241.24 341.15" stroke="hsl(228.5, 77.2%, 51.5%)" stroke-width="1.5"></path><path d="M1448.96 643.44L1448.96 643.44" stroke="hsl(228.5, 77.2%, 51.5%)" stroke-width="1.5"></path><path d="M1448.96 643.44L1547.56 550.32" stroke="hsl(228.5, 77.2%, 51.5%)" stroke-width="1.5"></path><path d="M1448.96 643.44L1599.21 685.73" stroke="hsl(228.5, 77.2%, 51.5%)" stroke-width="1.5"></path><path d="M-56.15 505.64L-56.15 505.64" stroke="hsl(228.5, 77.2%, 51.5%)" stroke-width="1.5"></path><path d="M-56.15 505.64L251.57 543.5" stroke="hsl(228.5, 77.2%, 51.5%)" stroke-width="1.5"></path><path d="M-56.15 505.64L198.57 684.27" stroke="hsl(228.5, 77.2%, 51.5%)" stroke-width="1.5"></path><path d="M-56.15 505.64L341.51 537.38" stroke="hsl(228.5, 77.2%, 51.5%)" stroke-width="1.5"></path><path d="M198.57 684.27L198.57 684.27" stroke="hsl(228.5, 77.2%, 51.5%)" stroke-width="1.5"></path><path d="M198.57 684.27L369.35 687.05" stroke="hsl(228.5, 77.2%, 51.5%)" stroke-width="1.5"></path><path d="M198.57 684.27L102.09 510.18" stroke="hsl(228.5, 77.2%, 51.5%)" stroke-width="1.5"></path><path d="M198.57 684.27L341.51 537.38" stroke="hsl(228.5, 77.2%, 51.5%)" stroke-width="1.5"></path><path d="M341.51 537.38L341.51 537.38" stroke="hsl(228.5, 77.2%, 51.5%)" stroke-width="1.5"></path><path d="M341.51 537.38L369.35 687.05" stroke="hsl(228.5, 77.2%, 51.5%)" stroke-width="1.5"></path><path d="M341.51 537.38L102.09 510.18" stroke="hsl(228.5, 77.2%, 51.5%)" stroke-width="1.5"></path><path d="M369.35 687.05L369.35 687.05" stroke="hsl(228.5, 77.2%, 51.5%)" stroke-width="1.5"></path><path d="M698.38 410.38L698.38 410.38" stroke="hsl(228.5, 77.2%, 51.5%)" stroke-width="1.5"></path><path d="M698.38 410.38L650.34 529" stroke="hsl(228.5, 77.2%, 51.5%)" stroke-width="1.5"></path><path d="M698.38 410.38L836.08 353.43" stroke="hsl(228.5, 77.2%, 51.5%)" stroke-width="1.5"></path><path d="M650.34 529L650.34 529" stroke="hsl(228.5, 77.2%, 51.5%)" stroke-width="1.5"></path><path d="M836.08 353.43L836.08 353.43" stroke="hsl(228.5, 77.2%, 51.5%)" stroke-width="1.5"></path><path d="M836.08 353.43L962.38 386.96" stroke="hsl(228.5, 77.2%, 51.5%)" stroke-width="1.5"></path><path d="M836.08 353.43L650.34 529" stroke="hsl(228.5, 77.2%, 51.5%)" stroke-width="1.5"></path><path d="M836.08 353.43L994.48 555.29" stroke="hsl(228.5, 77.2%, 51.5%)" stroke-width="1.5"></path><path d="M836.08 353.43L1122.19 387.22" stroke="hsl(228.5, 77.2%, 51.5%)" stroke-width="1.5"></path><path d="M790.67 700.94L790.67 700.94" stroke="hsl(228.5, 77.2%, 51.5%)" stroke-width="1.5"></path><path d="M790.67 700.94L953.87 698.83" stroke="hsl(228.5, 77.2%, 51.5%)" stroke-width="1.5"></path><path d="M962.38 386.96L962.38 386.96" stroke="hsl(228.5, 77.2%, 51.5%)" stroke-width="1.5"></path><path d="M962.38 386.96L1122.19 387.22" stroke="hsl(228.5, 77.2%, 51.5%)" stroke-width="1.5"></path><path d="M962.38 386.96L994.48 555.29" stroke="hsl(228.5, 77.2%, 51.5%)" stroke-width="1.5"></path><path d="M962.38 386.96L1107.42 252.64" stroke="hsl(228.5, 77.2%, 51.5%)" stroke-width="1.5"></path><path d="M994.48 555.29L994.48 555.29" stroke="hsl(228.5, 77.2%, 51.5%)" stroke-width="1.5"></path><path d="M994.48 555.29L953.87 698.83" stroke="hsl(228.5, 77.2%, 51.5%)" stroke-width="1.5"></path><path d="M953.87 698.83L953.87 698.83" stroke="hsl(228.5, 77.2%, 51.5%)" stroke-width="1.5"></path><path d="M1107.42 252.64L1107.42 252.64" stroke="hsl(228.5, 77.2%, 51.5%)" stroke-width="1.5"></path><path d="M1107.42 252.64L1122.19 387.22" stroke="hsl(228.5, 77.2%, 51.5%)" stroke-width="1.5"></path><path d="M1107.42 252.64L1241.24 341.15" stroke="hsl(228.5, 77.2%, 51.5%)" stroke-width="1.5"></path><path d="M1122.19 387.22L1122.19 387.22" stroke="hsl(228.5, 77.2%, 51.5%)" stroke-width="1.5"></path><path d="M1122.19 387.22L1241.24 341.15" stroke="hsl(228.5, 77.2%, 51.5%)" stroke-width="1.5"></path><path d="M1122.19 387.22L1094.28 542.11" stroke="hsl(228.5, 77.2%, 51.5%)" stroke-width="1.5"></path><path d="M1122.19 387.22L1243.13 516.26" stroke="hsl(228.5, 77.2%, 51.5%)" stroke-width="1.5"></path><path d="M1270.28 188.69L1270.28 188.69" stroke="hsl(228.5, 77.2%, 51.5%)" stroke-width="1.5"></path><path d="M1270.28 188.69L1394.33 97.33" stroke="hsl(228.5, 77.2%, 51.5%)" stroke-width="1.5"></path><path d="M1270.28 188.69L1241.24 341.15" stroke="hsl(228.5, 77.2%, 51.5%)" stroke-width="1.5"></path><path d="M1270.28 188.69L1433.93 233.21" stroke="hsl(228.5, 77.2%, 51.5%)" stroke-width="1.5"></path><path d="M1241.24 341.15L1241.24 341.15" stroke="hsl(228.5, 77.2%, 51.5%)" stroke-width="1.5"></path><path d="M1252.35 674.79L1252.35 674.79" stroke="hsl(228.5, 77.2%, 51.5%)" stroke-width="1.5"></path><path d="M1252.35 674.79L1448.96 643.44" stroke="hsl(228.5, 77.2%, 51.5%)" stroke-width="1.5"></path><path d="M1252.35 674.79L1094.28 542.11" stroke="hsl(228.5, 77.2%, 51.5%)" stroke-width="1.5"></path><path d="M1252.35 674.79L1403.34 489.93" stroke="hsl(228.5, 77.2%, 51.5%)" stroke-width="1.5"></path><path d="M1252.35 674.79L994.48 555.29" stroke="hsl(228.5, 77.2%, 51.5%)" stroke-width="1.5"></path><path d="M1401.69 -86.04L1401.69 -86.04" stroke="hsl(228.5, 77.2%, 51.5%)" stroke-width="1.5"></path><path d="M1401.69 -86.04L1394.33 97.33" stroke="hsl(228.5, 77.2%, 51.5%)" stroke-width="1.5"></path><path d="M1394.33 97.33L1394.33 97.33" stroke="hsl(228.5, 77.2%, 51.5%)" stroke-width="1.5"></path><path d="M1394.33 97.33L1433.93 233.21" stroke="hsl(228.5, 77.2%, 51.5%)" stroke-width="1.5"></path><path d="M1433.93 233.21L1433.93 233.21" stroke="hsl(228.5, 77.2%, 51.5%)" stroke-width="1.5"></path><path d="M1433.93 233.21L1429.93 360.42" stroke="hsl(228.5, 77.2%, 51.5%)" stroke-width="1.5"></path><path d="M1433.93 233.21L1582.38 200.37" stroke="hsl(228.5, 77.2%, 51.5%)" stroke-width="1.5"></path><path d="M1429.93 360.42L1429.93 360.42" stroke="hsl(228.5, 77.2%, 51.5%)" stroke-width="1.5"></path><path d="M1429.93 360.42L1537.87 405.02" stroke="hsl(228.5, 77.2%, 51.5%)" stroke-width="1.5"></path><path d="M1429.93 360.42L1403.34 489.93" stroke="hsl(228.5, 77.2%, 51.5%)" stroke-width="1.5"></path><path d="M1403.34 489.93L1403.34 489.93" stroke="hsl(228.5, 77.2%, 51.5%)" stroke-width="1.5"></path><path d="M1403.34 489.93L1547.56 550.32" stroke="hsl(228.5, 77.2%, 51.5%)" stroke-width="1.5"></path><path d="M1403.34 489.93L1537.87 405.02" stroke="hsl(228.5, 77.2%, 51.5%)" stroke-width="1.5"></path><path d="M1403.34 489.93L1448.96 643.44" stroke="hsl(228.5, 77.2%, 51.5%)" stroke-width="1.5"></path><path d="M1599.7 -54.91L1599.7 -54.91" stroke="hsl(228.5, 77.2%, 51.5%)" stroke-width="1.5"></path><path d="M1599.7 -54.91L1594.31 86.91" stroke="hsl(228.5, 77.2%, 51.5%)" stroke-width="1.5"></path><path d="M1599.7 -54.91L1401.69 -86.04" stroke="hsl(228.5, 77.2%, 51.5%)" stroke-width="1.5"></path><path d="M1599.7 -54.91L1394.33 97.33" stroke="hsl(228.5, 77.2%, 51.5%)" stroke-width="1.5"></path><path d="M1599.7 -54.91L1582.38 200.37" stroke="hsl(228.5, 77.2%, 51.5%)" stroke-width="1.5"></path><path d="M1594.31 86.91L1594.31 86.91" stroke="hsl(228.5, 77.2%, 51.5%)" stroke-width="1.5"></path><path d="M1594.31 86.91L1582.38 200.37" stroke="hsl(228.5, 77.2%, 51.5%)" stroke-width="1.5"></path><path d="M1594.31 86.91L1394.33 97.33" stroke="hsl(228.5, 77.2%, 51.5%)" stroke-width="1.5"></path><path d="M1594.31 86.91L1433.93 233.21" stroke="hsl(228.5, 77.2%, 51.5%)" stroke-width="1.5"></path><path d="M1594.31 86.91L1401.69 -86.04" stroke="hsl(228.5, 77.2%, 51.5%)" stroke-width="1.5"></path><path d="M1594.31 86.91L1300.62 50.61" stroke="hsl(228.5, 77.2%, 51.5%)" stroke-width="1.5"></path><path d="M1582.38 200.37L1582.38 200.37" stroke="hsl(228.5, 77.2%, 51.5%)" stroke-width="1.5"></path><path d="M1582.38 200.37L1537.87 405.02" stroke="hsl(228.5, 77.2%, 51.5%)" stroke-width="1.5"></path><path d="M1537.87 405.02L1537.87 405.02" stroke="hsl(228.5, 77.2%, 51.5%)" stroke-width="1.5"></path><path d="M1537.87 405.02L1547.56 550.32" stroke="hsl(228.5, 77.2%, 51.5%)" stroke-width="1.5"></path><path d="M1547.56 550.32L1547.56 550.32" stroke="hsl(228.5, 77.2%, 51.5%)" stroke-width="1.5"></path><path d="M1547.56 550.32L1599.21 685.73" stroke="hsl(228.5, 77.2%, 51.5%)" stroke-width="1.5"></path><path d="M1599.21 685.73L1599.21 685.73" stroke="hsl(228.5, 77.2%, 51.5%)" stroke-width="1.5"></path><path d="M1599.21 685.73L1403.34 489.93" stroke="hsl(228.5, 77.2%, 51.5%)" stroke-width="1.5"></path><path d="M1599.21 685.73L1537.87 405.02" stroke="hsl(228.5, 77.2%, 51.5%)" stroke-width="1.5"></path><path d="M1599.21 685.73L1252.35 674.79" stroke="hsl(228.5, 77.2%, 51.5%)" stroke-width="1.5"></path><path d="M1599.21 685.73L1429.93 360.42" stroke="hsl(228.5, 77.2%, 51.5%)" stroke-width="1.5"></path><circle r="25" cx="-108.58" cy="666.34" fill="url(#SvgjsRadialGradient1001)"></circle><circle r="25" cx="102.09" cy="510.18" fill="url(#SvgjsRadialGradient1001)"></circle><circle r="25" cx="251.57" cy="543.5" fill="url(#SvgjsRadialGradient1001)"></circle><circle r="25" cx="518.29" cy="681.93" fill="url(#SvgjsRadialGradient1001)"></circle><circle r="25" cx="668.58" cy="687.89" fill="url(#SvgjsRadialGradient1001)"></circle><circle r="25" cx="796.81" cy="527.62" fill="url(#SvgjsRadialGradient1001)"></circle><circle r="25" cx="1094.28" cy="542.11" fill="url(#SvgjsRadialGradient1001)"></circle><circle r="25" cx="1265.12" cy="-51.6" fill="url(#SvgjsRadialGradient1001)"></circle><circle r="25" cx="1300.62" cy="50.61" fill="url(#SvgjsRadialGradient1001)"></circle><circle r="25" cx="1243.13" cy="516.26" fill="url(#SvgjsRadialGradient1001)"></circle><circle r="25" cx="1448.96" cy="643.44" fill="url(#SvgjsRadialGradient1001)"></circle><circle r="5" cx="-56.15" cy="505.64" fill="#8b9ad9"></circle><circle r="5" cx="198.57" cy="684.27" fill="#8b9ad9"></circle><circle r="5" cx="341.51" cy="537.38" fill="#8b9ad9"></circle><circle r="5" cx="369.35" cy="687.05" fill="#8b9ad9"></circle><circle r="5" cx="698.38" cy="410.38" fill="#8b9ad9"></circle><circle r="5" cx="650.34" cy="529" fill="#8b9ad9"></circle><circle r="5" cx="836.08" cy="353.43" fill="#8b9ad9"></circle><circle r="5" cx="790.67" cy="700.94" fill="#8b9ad9"></circle><circle r="5" cx="962.38" cy="386.96" fill="#8b9ad9"></circle><circle r="5" cx="994.48" cy="555.29" fill="#8b9ad9"></circle><circle r="5" cx="953.87" cy="698.83" fill="#8b9ad9"></circle><circle r="5" cx="1107.42" cy="252.64" fill="#8b9ad9"></circle><circle r="5" cx="1122.19" cy="387.22" fill="#8b9ad9"></circle><circle r="5" cx="1270.28" cy="188.69" fill="#8b9ad9"></circle><circle r="5" cx="1241.24" cy="341.15" fill="#8b9ad9"></circle><circle r="5" cx="1252.35" cy="674.79" fill="#8b9ad9"></circle><circle r="5" cx="1401.69" cy="-86.04" fill="#8b9ad9"></circle><circle r="5" cx="1394.33" cy="97.33" fill="#8b9ad9"></circle><circle r="5" cx="1433.93" cy="233.21" fill="#8b9ad9"></circle><circle r="5" cx="1429.93" cy="360.42" fill="#8b9ad9"></circle><circle r="5" cx="1403.34" cy="489.93" fill="#8b9ad9"></circle><circle r="5" cx="1599.7" cy="-54.91" fill="#8b9ad9"></circle><circle r="5" cx="1594.31" cy="86.91" fill="#8b9ad9"></circle><circle r="5" cx="1582.38" cy="200.37" fill="#8b9ad9"></circle><circle r="5" cx="1537.87" cy="405.02" fill="#8b9ad9"></circle><circle r="5" cx="1547.56" cy="550.32" fill="#8b9ad9"></circle><circle r="5" cx="1599.21" cy="685.73" fill="#8b9ad9"></circle></g><defs><mask id="SvgjsMask1000"><rect width="1440" height="560" fill="#ffffff"></rect></mask><radialGradient id="SvgjsRadialGradient1001"><stop stop-color="#ffffff" offset="0.1"></stop><stop stop-color="#1735b3" offset="0.2"></stop><stop stop-color="rgba(23, 53, 179, 0)" offset="1"></stop></radialGradient></defs></svg>