<svg xmlns="http://www.w3.org/2000/svg" version="1.1" xmlns:xlink="http://www.w3.org/1999/xlink" xmlns:svgjs="http://svgjs.com/svgjs" width="1440" height="760" preserveAspectRatio="none" viewBox="0 0 1440 760"><g mask="url(&quot;#SvgjsMask1651&quot;)" fill="none"><rect width="1440" height="760" x="0" y="0" fill="url(#SvgjsRadialGradient1652)"></rect><g transform="translate(0, 0)"><use xlink:href="#SvgjsPath1653" x="265" y="380" fill="rgba(226, 228, 82, 1)"></use><use xlink:href="#SvgjsPath1654" x="291" y="380" fill="rgba(226, 228, 82, 1)"></use><use xlink:href="#SvgjsPath1653" x="317" y="380" fill="#dd1133"></use><use xlink:href="#SvgjsPath1655" x="343" y="380" fill="rgba(226, 228, 82, 1)"></use><use xlink:href="#SvgjsPath1656" x="369" y="380" fill="rgba(226, 228, 82, 1)"></use><use xlink:href="#SvgjsPath1657" x="395" y="380" fill="rgba(226, 228, 82, 1)"></use><use xlink:href="#SvgjsPath1657" x="421" y="380" fill="rgba(226, 228, 82, 1)"></use><use xlink:href="#SvgjsPath1656" x="447" y="380" fill="rgba(226, 228, 82, 1)"></use><use xlink:href="#SvgjsPath1658" x="473" y="380" fill="#dd1133"></use><use xlink:href="#SvgjsPath1659" x="499" y="380" fill="#dd1133"></use><use xlink:href="#SvgjsPath1660" x="525" y="380" fill="rgba(226, 228, 82, 1)"></use><use xlink:href="#SvgjsPath1660" x="551" y="380" fill="rgba(226, 228, 82, 1)"></use><use xlink:href="#SvgjsPath1661" x="577" y="380" fill="rgba(226, 228, 82, 1)"></use><use xlink:href="#SvgjsPath1655" x="603" y="380" fill="#dd1133"></use><use xlink:href="#SvgjsPath1657" x="629" y="380" fill="#dd1133"></use><use xlink:href="#SvgjsPath1653" x="655" y="380" fill="#dd1133"></use><use xlink:href="#SvgjsPath1660" x="681" y="380" fill="#dd1133"></use><use xlink:href="#SvgjsPath1655" x="707" y="380" fill="#dd1133"></use><use xlink:href="#SvgjsPath1660" x="733" y="380" fill="#dd1133"></use><use xlink:href="#SvgjsPath1661" x="759" y="380" fill="#dd1133"></use><use xlink:href="#SvgjsPath1659" x="785" y="380" fill="rgba(226, 228, 82, 1)"></use><use xlink:href="#SvgjsPath1661" x="811" y="380" fill="#dd1133"></use><use xlink:href="#SvgjsPath1660" x="837" y="380" fill="rgba(226, 228, 82, 1)"></use><use xlink:href="#SvgjsPath1653" x="863" y="380" fill="rgba(226, 228, 82, 1)"></use><use xlink:href="#SvgjsPath1657" x="889" y="380" fill="rgba(226, 228, 82, 1)"></use><use xlink:href="#SvgjsPath1661" x="915" y="380" fill="#dd1133"></use><use xlink:href="#SvgjsPath1653" x="941" y="380" fill="#dd1133"></use><use xlink:href="#SvgjsPath1656" x="967" y="380" fill="rgba(226, 228, 82, 1)"></use><use xlink:href="#SvgjsPath1655" x="993" y="380" fill="rgba(226, 228, 82, 1)"></use><use xlink:href="#SvgjsPath1654" x="1019" y="380" fill="#dd1133"></use><use xlink:href="#SvgjsPath1657" x="1045" y="380" fill="#dd1133"></use><use xlink:href="#SvgjsPath1661" x="1071" y="380" fill="rgba(226, 228, 82, 1)"></use><use xlink:href="#SvgjsPath1659" x="1097" y="380" fill="rgba(226, 228, 82, 1)"></use><use xlink:href="#SvgjsPath1661" x="1123" y="380" fill="rgba(226, 228, 82, 1)"></use><use xlink:href="#SvgjsPath1657" x="1149" y="380" fill="#dd1133"></use><use xlink:href="#SvgjsPath1654" x="1175" y="380" fill="rgba(226, 228, 82, 1)"></use></g></g><defs><mask id="SvgjsMask1651"><rect width="1440" height="760" fill="#ffffff"></rect></mask><radialGradient cx="50%" cy="50%" r="814.13" gradientUnits="userSpaceOnUse" id="SvgjsRadialGradient1652"><stop stop-color="#0e2a47" offset="0"></stop><stop stop-color="rgba(241, 241, 241, 1)" offset="1"></stop></radialGradient><path d="M-10.4 0 a10.4 10.4 0 1 0 20.8 0 a10.4 10.4 0 1 0 -20.8 0zM-10.4 26 a10.4 10.4 0 1 0 20.8 0 a10.4 10.4 0 1 0 -20.8 0zM-10.4 -26 a10.4 10.4 0 1 0 20.8 0 a10.4 10.4 0 1 0 -20.8 0z" id="SvgjsPath1654"></path><path d="M-10.4 0 a10.4 10.4 0 1 0 20.8 0 a10.4 10.4 0 1 0 -20.8 0zM-10.4 26 a10.4 10.4 0 1 0 20.8 0 a10.4 10.4 0 1 0 -20.8 0zM-10.4 -26 a10.4 10.4 0 1 0 20.8 0 a10.4 10.4 0 1 0 -20.8 0zM-10.4 52 a10.4 10.4 0 1 0 20.8 0 a10.4 10.4 0 1 0 -20.8 0zM-10.4 -52 a10.4 10.4 0 1 0 20.8 0 a10.4 10.4 0 1 0 -20.8 0z" id="SvgjsPath1659"></path><path d="M-10.4 0 a10.4 10.4 0 1 0 20.8 0 a10.4 10.4 0 1 0 -20.8 0zM-10.4 26 a10.4 10.4 0 1 0 20.8 0 a10.4 10.4 0 1 0 -20.8 0zM-10.4 -26 a10.4 10.4 0 1 0 20.8 0 a10.4 10.4 0 1 0 -20.8 0zM-10.4 52 a10.4 10.4 0 1 0 20.8 0 a10.4 10.4 0 1 0 -20.8 0zM-10.4 -52 a10.4 10.4 0 1 0 20.8 0 a10.4 10.4 0 1 0 -20.8 0zM-10.4 78 a10.4 10.4 0 1 0 20.8 0 a10.4 10.4 0 1 0 -20.8 0zM-10.4 -78 a10.4 10.4 0 1 0 20.8 0 a10.4 10.4 0 1 0 -20.8 0z" id="SvgjsPath1653"></path><path d="M-10.4 0 a10.4 10.4 0 1 0 20.8 0 a10.4 10.4 0 1 0 -20.8 0zM-10.4 26 a10.4 10.4 0 1 0 20.8 0 a10.4 10.4 0 1 0 -20.8 0zM-10.4 -26 a10.4 10.4 0 1 0 20.8 0 a10.4 10.4 0 1 0 -20.8 0zM-10.4 52 a10.4 10.4 0 1 0 20.8 0 a10.4 10.4 0 1 0 -20.8 0zM-10.4 -52 a10.4 10.4 0 1 0 20.8 0 a10.4 10.4 0 1 0 -20.8 0zM-10.4 78 a10.4 10.4 0 1 0 20.8 0 a10.4 10.4 0 1 0 -20.8 0zM-10.4 -78 a10.4 10.4 0 1 0 20.8 0 a10.4 10.4 0 1 0 -20.8 0zM-10.4 104 a10.4 10.4 0 1 0 20.8 0 a10.4 10.4 0 1 0 -20.8 0zM-10.4 -104 a10.4 10.4 0 1 0 20.8 0 a10.4 10.4 0 1 0 -20.8 0z" id="SvgjsPath1657"></path><path d="M-10.4 0 a10.4 10.4 0 1 0 20.8 0 a10.4 10.4 0 1 0 -20.8 0zM-10.4 26 a10.4 10.4 0 1 0 20.8 0 a10.4 10.4 0 1 0 -20.8 0zM-10.4 -26 a10.4 10.4 0 1 0 20.8 0 a10.4 10.4 0 1 0 -20.8 0zM-10.4 52 a10.4 10.4 0 1 0 20.8 0 a10.4 10.4 0 1 0 -20.8 0zM-10.4 -52 a10.4 10.4 0 1 0 20.8 0 a10.4 10.4 0 1 0 -20.8 0zM-10.4 78 a10.4 10.4 0 1 0 20.8 0 a10.4 10.4 0 1 0 -20.8 0zM-10.4 -78 a10.4 10.4 0 1 0 20.8 0 a10.4 10.4 0 1 0 -20.8 0zM-10.4 104 a10.4 10.4 0 1 0 20.8 0 a10.4 10.4 0 1 0 -20.8 0zM-10.4 -104 a10.4 10.4 0 1 0 20.8 0 a10.4 10.4 0 1 0 -20.8 0zM-10.4 130 a10.4 10.4 0 1 0 20.8 0 a10.4 10.4 0 1 0 -20.8 0zM-10.4 -130 a10.4 10.4 0 1 0 20.8 0 a10.4 10.4 0 1 0 -20.8 0z" id="SvgjsPath1658"></path><path d="M-10.4 0 a10.4 10.4 0 1 0 20.8 0 a10.4 10.4 0 1 0 -20.8 0zM-10.4 26 a10.4 10.4 0 1 0 20.8 0 a10.4 10.4 0 1 0 -20.8 0zM-10.4 -26 a10.4 10.4 0 1 0 20.8 0 a10.4 10.4 0 1 0 -20.8 0zM-10.4 52 a10.4 10.4 0 1 0 20.8 0 a10.4 10.4 0 1 0 -20.8 0zM-10.4 -52 a10.4 10.4 0 1 0 20.8 0 a10.4 10.4 0 1 0 -20.8 0zM-10.4 78 a10.4 10.4 0 1 0 20.8 0 a10.4 10.4 0 1 0 -20.8 0zM-10.4 -78 a10.4 10.4 0 1 0 20.8 0 a10.4 10.4 0 1 0 -20.8 0zM-10.4 104 a10.4 10.4 0 1 0 20.8 0 a10.4 10.4 0 1 0 -20.8 0zM-10.4 -104 a10.4 10.4 0 1 0 20.8 0 a10.4 10.4 0 1 0 -20.8 0zM-10.4 130 a10.4 10.4 0 1 0 20.8 0 a10.4 10.4 0 1 0 -20.8 0zM-10.4 -130 a10.4 10.4 0 1 0 20.8 0 a10.4 10.4 0 1 0 -20.8 0zM-10.4 156 a10.4 10.4 0 1 0 20.8 0 a10.4 10.4 0 1 0 -20.8 0zM-10.4 -156 a10.4 10.4 0 1 0 20.8 0 a10.4 10.4 0 1 0 -20.8 0z" id="SvgjsPath1661"></path><path d="M-10.4 0 a10.4 10.4 0 1 0 20.8 0 a10.4 10.4 0 1 0 -20.8 0zM-10.4 26 a10.4 10.4 0 1 0 20.8 0 a10.4 10.4 0 1 0 -20.8 0zM-10.4 -26 a10.4 10.4 0 1 0 20.8 0 a10.4 10.4 0 1 0 -20.8 0zM-10.4 52 a10.4 10.4 0 1 0 20.8 0 a10.4 10.4 0 1 0 -20.8 0zM-10.4 -52 a10.4 10.4 0 1 0 20.8 0 a10.4 10.4 0 1 0 -20.8 0zM-10.4 78 a10.4 10.4 0 1 0 20.8 0 a10.4 10.4 0 1 0 -20.8 0zM-10.4 -78 a10.4 10.4 0 1 0 20.8 0 a10.4 10.4 0 1 0 -20.8 0zM-10.4 104 a10.4 10.4 0 1 0 20.8 0 a10.4 10.4 0 1 0 -20.8 0zM-10.4 -104 a10.4 10.4 0 1 0 20.8 0 a10.4 10.4 0 1 0 -20.8 0zM-10.4 130 a10.4 10.4 0 1 0 20.8 0 a10.4 10.4 0 1 0 -20.8 0zM-10.4 -130 a10.4 10.4 0 1 0 20.8 0 a10.4 10.4 0 1 0 -20.8 0zM-10.4 156 a10.4 10.4 0 1 0 20.8 0 a10.4 10.4 0 1 0 -20.8 0zM-10.4 -156 a10.4 10.4 0 1 0 20.8 0 a10.4 10.4 0 1 0 -20.8 0zM-10.4 182 a10.4 10.4 0 1 0 20.8 0 a10.4 10.4 0 1 0 -20.8 0zM-10.4 -182 a10.4 10.4 0 1 0 20.8 0 a10.4 10.4 0 1 0 -20.8 0z" id="SvgjsPath1660"></path><path d="M-10.4 0 a10.4 10.4 0 1 0 20.8 0 a10.4 10.4 0 1 0 -20.8 0zM-10.4 26 a10.4 10.4 0 1 0 20.8 0 a10.4 10.4 0 1 0 -20.8 0zM-10.4 -26 a10.4 10.4 0 1 0 20.8 0 a10.4 10.4 0 1 0 -20.8 0zM-10.4 52 a10.4 10.4 0 1 0 20.8 0 a10.4 10.4 0 1 0 -20.8 0zM-10.4 -52 a10.4 10.4 0 1 0 20.8 0 a10.4 10.4 0 1 0 -20.8 0zM-10.4 78 a10.4 10.4 0 1 0 20.8 0 a10.4 10.4 0 1 0 -20.8 0zM-10.4 -78 a10.4 10.4 0 1 0 20.8 0 a10.4 10.4 0 1 0 -20.8 0zM-10.4 104 a10.4 10.4 0 1 0 20.8 0 a10.4 10.4 0 1 0 -20.8 0zM-10.4 -104 a10.4 10.4 0 1 0 20.8 0 a10.4 10.4 0 1 0 -20.8 0zM-10.4 130 a10.4 10.4 0 1 0 20.8 0 a10.4 10.4 0 1 0 -20.8 0zM-10.4 -130 a10.4 10.4 0 1 0 20.8 0 a10.4 10.4 0 1 0 -20.8 0zM-10.4 156 a10.4 10.4 0 1 0 20.8 0 a10.4 10.4 0 1 0 -20.8 0zM-10.4 -156 a10.4 10.4 0 1 0 20.8 0 a10.4 10.4 0 1 0 -20.8 0zM-10.4 182 a10.4 10.4 0 1 0 20.8 0 a10.4 10.4 0 1 0 -20.8 0zM-10.4 -182 a10.4 10.4 0 1 0 20.8 0 a10.4 10.4 0 1 0 -20.8 0zM-10.4 208 a10.4 10.4 0 1 0 20.8 0 a10.4 10.4 0 1 0 -20.8 0zM-10.4 -208 a10.4 10.4 0 1 0 20.8 0 a10.4 10.4 0 1 0 -20.8 0z" id="SvgjsPath1656"></path><path d="M-10.4 0 a10.4 10.4 0 1 0 20.8 0 a10.4 10.4 0 1 0 -20.8 0zM-10.4 26 a10.4 10.4 0 1 0 20.8 0 a10.4 10.4 0 1 0 -20.8 0zM-10.4 -26 a10.4 10.4 0 1 0 20.8 0 a10.4 10.4 0 1 0 -20.8 0zM-10.4 52 a10.4 10.4 0 1 0 20.8 0 a10.4 10.4 0 1 0 -20.8 0zM-10.4 -52 a10.4 10.4 0 1 0 20.8 0 a10.4 10.4 0 1 0 -20.8 0zM-10.4 78 a10.4 10.4 0 1 0 20.8 0 a10.4 10.4 0 1 0 -20.8 0zM-10.4 -78 a10.4 10.4 0 1 0 20.8 0 a10.4 10.4 0 1 0 -20.8 0zM-10.4 104 a10.4 10.4 0 1 0 20.8 0 a10.4 10.4 0 1 0 -20.8 0zM-10.4 -104 a10.4 10.4 0 1 0 20.8 0 a10.4 10.4 0 1 0 -20.8 0zM-10.4 130 a10.4 10.4 0 1 0 20.8 0 a10.4 10.4 0 1 0 -20.8 0zM-10.4 -130 a10.4 10.4 0 1 0 20.8 0 a10.4 10.4 0 1 0 -20.8 0zM-10.4 156 a10.4 10.4 0 1 0 20.8 0 a10.4 10.4 0 1 0 -20.8 0zM-10.4 -156 a10.4 10.4 0 1 0 20.8 0 a10.4 10.4 0 1 0 -20.8 0zM-10.4 182 a10.4 10.4 0 1 0 20.8 0 a10.4 10.4 0 1 0 -20.8 0zM-10.4 -182 a10.4 10.4 0 1 0 20.8 0 a10.4 10.4 0 1 0 -20.8 0zM-10.4 208 a10.4 10.4 0 1 0 20.8 0 a10.4 10.4 0 1 0 -20.8 0zM-10.4 -208 a10.4 10.4 0 1 0 20.8 0 a10.4 10.4 0 1 0 -20.8 0zM-10.4 234 a10.4 10.4 0 1 0 20.8 0 a10.4 10.4 0 1 0 -20.8 0zM-10.4 -234 a10.4 10.4 0 1 0 20.8 0 a10.4 10.4 0 1 0 -20.8 0z" id="SvgjsPath1655"></path></defs></svg>